# xmcd
#
# Track frame offsets: 
#        150
#        20550
#        34350
#        52575
#        77475
#        93600
#        108600
#        118800
#        138900
#        150375
#        166950
#        183225
#
# Disc length: 2608 seconds
#
# Revision: 0
# Processed by: cddbd v1.5.2PL0 Copyright (c) Steve Scherf et al.
# Submitted via: ExactAudioCopy v1.3
#
DISCID=910a2e0c
DTITLE=The Mason Rack Band - Best Of So Far
DYEAR=2017
DGENRE=Blues
TTITLE0=Time Again
TTITLE1=Seen Her Before
TTITLE2=Purple And Blue
TTITLE3=Hard Goodbye
TTITLE4=Naughty Girl
TTITLE5=It Hurts
TTITLE6=30 Day Run
TTITLE7=Come On Up
TTITLE8=Not In That Order
TTITLE9=In A Can
TTITLE10=Twinkle
TTITLE11=Stop Joy
EXTD=
EXTT0=
EXTT1=
EXTT2=
EXTT3=
EXTT4=
EXTT5=
EXTT6=
EXTT7=
EXTT8=
EXTT9=
EXTT10=
EXTT11=
PLAYORDER=
